<mxfile host="Electron" agent="Mozilla/5.0 (Windows NT 10.0; Win64; x64) AppleWebKit/537.36 (KHTML, like Gecko) draw.io/24.7.5 Chrome/126.0.6478.183 Electron/31.3.0 Safari/537.36" version="24.7.5">
  <diagram name="第 1 页" id="sTb8V6_llQWVWky71q_P">
    <mxGraphModel dx="1371" dy="828" grid="1" gridSize="10" guides="1" tooltips="1" connect="1" arrows="1" fold="1" page="1" pageScale="1" pageWidth="827" pageHeight="1169" math="0" shadow="0">
      <root>
        <mxCell id="0" />
        <mxCell id="1" parent="0" />
        <mxCell id="-VtrnbuTWJj-WVxdNShx-5" value="" style="verticalLabelPosition=bottom;sketch=0;aspect=fixed;html=1;verticalAlign=top;strokeColor=none;align=center;outlineConnect=0;shape=mxgraph.citrix.web_server;" vertex="1" parent="1">
          <mxGeometry x="40" y="360" width="76.5" height="90" as="geometry" />
        </mxCell>
        <mxCell id="-VtrnbuTWJj-WVxdNShx-6" value="" style="verticalLabelPosition=bottom;sketch=0;aspect=fixed;html=1;verticalAlign=top;strokeColor=none;align=center;outlineConnect=0;shape=mxgraph.citrix.web_server;" vertex="1" parent="1">
          <mxGeometry x="221.75" y="360" width="76.5" height="90" as="geometry" />
        </mxCell>
        <mxCell id="-VtrnbuTWJj-WVxdNShx-7" value="" style="sketch=0;pointerEvents=1;shadow=0;dashed=0;html=1;strokeColor=none;fillColor=#505050;labelPosition=center;verticalLabelPosition=bottom;verticalAlign=top;outlineConnect=0;align=center;shape=mxgraph.office.servers.database_server_green;" vertex="1" parent="1">
          <mxGeometry x="119.12" y="50" width="100" height="110" as="geometry" />
        </mxCell>
        <mxCell id="-VtrnbuTWJj-WVxdNShx-8" value="Web A" style="text;html=1;align=center;verticalAlign=middle;resizable=0;points=[];autosize=1;strokeColor=none;fillColor=none;" vertex="1" parent="1">
          <mxGeometry x="40" y="320" width="60" height="30" as="geometry" />
        </mxCell>
        <mxCell id="-VtrnbuTWJj-WVxdNShx-9" value="Web B" style="text;html=1;align=center;verticalAlign=middle;resizable=0;points=[];autosize=1;strokeColor=none;fillColor=none;" vertex="1" parent="1">
          <mxGeometry x="221.75" y="320" width="60" height="30" as="geometry" />
        </mxCell>
        <mxCell id="-VtrnbuTWJj-WVxdNShx-10" value="" style="outlineConnect=0;dashed=0;verticalLabelPosition=bottom;verticalAlign=top;align=center;html=1;shape=mxgraph.aws3.queue;fillColor=#D9A741;gradientColor=none;" vertex="1" parent="1">
          <mxGeometry x="111.75" y="170" width="110" height="48" as="geometry" />
        </mxCell>
        <mxCell id="-VtrnbuTWJj-WVxdNShx-12" value="Rabbit MQ Server" style="text;html=1;align=center;verticalAlign=middle;resizable=0;points=[];autosize=1;strokeColor=none;fillColor=none;" vertex="1" parent="1">
          <mxGeometry x="109.12" y="20" width="120" height="30" as="geometry" />
        </mxCell>
        <mxCell id="-VtrnbuTWJj-WVxdNShx-13" value="" style="endArrow=none;html=1;rounded=0;" edge="1" parent="1" source="-VtrnbuTWJj-WVxdNShx-5">
          <mxGeometry width="50" height="50" relative="1" as="geometry">
            <mxPoint x="79.12" y="320" as="sourcePoint" />
            <mxPoint x="169.12" y="220" as="targetPoint" />
          </mxGeometry>
        </mxCell>
        <mxCell id="-VtrnbuTWJj-WVxdNShx-14" value="" style="endArrow=none;html=1;rounded=0;" edge="1" parent="1" source="-VtrnbuTWJj-WVxdNShx-6">
          <mxGeometry width="50" height="50" relative="1" as="geometry">
            <mxPoint x="89.12" y="330" as="sourcePoint" />
            <mxPoint x="169.12" y="220" as="targetPoint" />
          </mxGeometry>
        </mxCell>
      </root>
    </mxGraphModel>
  </diagram>
</mxfile>
